<svg xmlns="http://www.w3.org/2000/svg" width="200" height="44" viewBox="0 0 200 44" fill="none"><path d="M0 12.7001C6.35746 9.1363 13.4932 7.18911 20.7796 7.02973V0.00195312H0V12.7001Z" fill="#FFD100"></path><path d="M20.7796 20.7815V8.5C13.3101 10.0685 6.7389 14.4705 2.4463 20.7815H20.7796Z" fill="#012169"></path><path d="M90.3796 6.2889V6.68705C90.3799 6.86716 90.4156 7.04546 90.4848 7.21175C90.554 7.37804 90.6554 7.52906 90.783 7.65616C90.9106 7.78326 91.062 7.88396 91.2286 7.95249C91.3952 8.02103 91.5736 8.05605 91.7537 8.05557H100.643C104.094 8.05557 106.881 10.037 106.881 14.5482C106.881 15.3671 106.72 16.178 106.406 16.9345C106.092 17.6911 105.633 18.3784 105.053 18.9572C104.474 19.5361 103.786 19.9951 103.029 20.3081C102.273 20.6211 101.462 20.782 100.643 20.7815H86.4945V15.8463H100.596C100.775 15.8485 100.953 15.8152 101.12 15.7483C101.286 15.6814 101.437 15.5823 101.565 15.4566C101.693 15.3309 101.794 15.1812 101.864 15.0161C101.933 14.8509 101.97 14.6737 101.97 14.4945V13.9389C101.97 13.7587 101.934 13.5803 101.865 13.4139C101.796 13.2475 101.695 13.0964 101.567 12.9691C101.44 12.8419 101.288 12.741 101.122 12.6723C100.955 12.6035 100.777 12.5683 100.596 12.5685H91.7074C88.2556 12.5685 85.4574 9.97594 85.4574 6.22408C85.4613 4.57007 86.1219 2.9853 87.2939 1.81817C88.4659 0.651033 90.0534 -0.00294043 91.7074 9.93965e-06H105.717V4.93705H91.7556C91.5763 4.9346 91.3983 4.96773 91.232 5.03452C91.0656 5.10132 90.9142 5.20044 90.7864 5.32617C90.6586 5.4519 90.557 5.60172 90.4875 5.76698C90.418 5.93223 90.382 6.10963 90.3815 6.2889" fill="#012169"></path><path d="M55.8445 0.00195312V13.202C55.8445 17.6742 51.8889 21.302 47.4185 21.302H41.413C36.9407 21.302 32.987 17.6742 32.987 13.202V0.00195312H38.3333V13.4964C38.3333 15.0834 39.9463 16.3686 41.5315 16.3686H47.3204C48.9056 16.3686 50.5185 15.0834 50.5185 13.4964V0.00195312H55.8445Z" fill="#012169"></path><path d="M82.5926 0.00195312V13.202C82.5926 17.6742 78.6389 21.302 74.1685 21.302H68.1648C63.6944 21.302 59.7407 17.6742 59.7407 13.202V0.00195312H65.0778V13.5112C65.0778 15.0945 66.6889 16.3779 68.2722 16.3779H74.0741C75.6556 16.3779 77.2667 15.0945 77.2667 13.5112V0.00195312H82.5926Z" fill="#012169"></path><path d="M169.222 20.7816H174.546L166.222 0.00195312H158.583L150.261 20.7816H155.585L157.393 16.2705H167.407L169.222 20.7816ZM159.111 11.9797L162.037 4.68343H162.778L165.7 11.9797H159.111Z" fill="#012169"></path><path d="M138.811 0.00195312L133.28 15.4445H132.698L127.165 0.00195312H117.922V20.7816H123.228V4.7464H123.902L129.757 20.7816H136.219L142.072 4.68529H142.748V20.7816H148.052V0.00195312H138.811Z" fill="#012169"></path><path d="M194.676 20.7816H200L191.667 0.00195312H184.03L175.706 20.7816H181.03L182.837 16.2705H192.859L194.676 20.7816ZM184.565 11.9797L187.487 4.68343H188.228L191.15 11.9797H184.565Z" fill="#012169"></path><path d="M44.713 29.7241V42.9278H42.5685L36.3574 33.9334H36.2407V42.9278H33.8481V29.7241H35.9926L42.2056 38.7186H42.3204V29.7241H44.713Z" fill="#012169"></path><path d="M51.2074 43.1221C50.326 43.1442 49.4555 42.9239 48.6907 42.4851C47.9818 42.0593 47.4113 41.4373 47.0482 40.6944C46.6644 39.8512 46.4658 38.9356 46.4658 38.0092C46.4658 37.0828 46.6644 36.1672 47.0482 35.324C47.4096 34.5789 47.9804 33.9553 48.6907 33.5296C49.4633 33.1103 50.3284 32.8906 51.2074 32.8906C52.0864 32.8906 52.9515 33.1103 53.7241 33.5296C54.4355 33.9556 55.0081 34.579 55.3722 35.324C55.7586 36.1664 55.9587 37.0824 55.9587 38.0092C55.9587 38.936 55.7586 39.8519 55.3722 40.6944C55.0063 41.4372 54.4341 42.0589 53.7241 42.4851C52.9593 42.9239 52.0888 43.1442 51.2074 43.1221ZM51.2074 41.2444C51.6874 41.2624 52.1584 41.1102 52.537 40.8147C52.9005 40.5049 53.172 40.1014 53.3222 39.6481C53.502 39.1238 53.5903 38.5726 53.5833 38.0184C53.5912 37.4582 53.5029 36.9007 53.3222 36.3703C53.1727 35.9172 52.901 35.5141 52.537 35.2055C52.1522 34.925 51.6883 34.774 51.212 34.774C50.7358 34.774 50.2719 34.925 49.887 35.2055C49.5188 35.5117 49.2441 35.9153 49.0945 36.3703C48.9138 36.9007 48.8255 37.4582 48.8333 38.0184C48.8264 38.5726 48.9147 39.1238 49.0945 39.6481C49.2445 40.1033 49.5191 40.5075 49.887 40.8147C50.2633 41.1082 50.7306 41.2602 51.2074 41.2444Z" fill="#012169"></path><path d="M57.6056 42.9277V33.0203H59.8648V34.687H59.9722C60.119 34.1491 60.4459 33.6778 60.8982 33.3518C61.3419 33.0419 61.8718 32.8793 62.413 32.887C62.537 32.887 62.6815 32.887 62.8426 32.9055C62.9778 32.9134 63.1126 32.9283 63.2463 32.9499V35.0944C63.093 35.0487 62.9354 35.0189 62.7759 35.0055C62.5731 34.9822 62.369 34.9705 62.1648 34.9703C61.7639 34.9627 61.3675 35.057 61.013 35.2444C60.6856 35.4194 60.4117 35.6799 60.2204 35.9981C60.0236 36.3348 59.9236 36.7193 59.9315 37.1092V42.9222L57.6056 42.9277Z" fill="#012169"></path><path d="M67.7333 43.1056C66.9941 43.1152 66.2683 42.9071 65.6463 42.5075C65.0041 42.0776 64.4984 41.4729 64.1889 40.7649C63.8117 39.8887 63.6303 38.9407 63.6574 37.9871C63.6282 37.0279 63.8143 36.0743 64.2019 35.1963C64.5177 34.4959 65.0264 33.8999 65.6685 33.4778C66.2856 33.0869 67.0029 32.8836 67.7333 32.8926C68.2283 32.8737 68.7205 32.974 69.1685 33.1852C69.5109 33.3557 69.8142 33.5953 70.0593 33.8889C70.2559 34.1256 70.4266 34.3826 70.5685 34.6556H70.6667V29.7241H72.9889V42.9278H70.7111V41.3593H70.5685C70.4232 41.6333 70.2481 41.8904 70.0463 42.126C69.7973 42.4137 69.4931 42.6485 69.1519 42.8167C68.7088 43.0246 68.2224 43.1236 67.7333 43.1056ZM68.3796 41.1908C68.8343 41.2042 69.28 41.0617 69.6426 40.7871C70.0074 40.4934 70.2827 40.1033 70.437 39.6612C70.7999 38.5714 70.7999 37.3935 70.437 36.3037C70.2866 35.8651 70.0126 35.4793 69.6481 35.1926C69.2689 34.9361 68.8207 34.8005 68.3629 34.8038C67.905 34.8071 67.4589 34.9492 67.0833 35.2112C66.72 35.5036 66.4477 35.8935 66.2981 36.3352C65.9463 37.4033 65.9463 38.5561 66.2981 39.6241C66.4488 40.07 66.7199 40.4654 67.0815 40.7667C67.4508 41.0564 67.9105 41.2066 68.3796 41.1908Z" fill="#012169"></path></svg>