<?xml version="1.0" encoding="UTF-8"?>
<svg xmlns="http://www.w3.org/2000/svg" viewBox="0 0 193 43">
  <g fill="#fff">
    <path d="m.3 13.2c6.1-3.4 12.9-5.3 19.9-5.4v-6.8h-19.9z"/>
    <path d="m20.2 20.9v-11.8c-7.2 1.6-13.5 5.8-17.6 11.8z"/>
    <path d="m86.9 7v.4c0 .7.6 1.3 1.3 1.3h8.5c3.3 0 6 1.9 6 6.2 0 3.3-2.7 6-6 6h-13.5v-4.7h13.5c.7 0 1.3-.6 1.3-1.3v-.5c0-.7-.6-1.3-1.3-1.3h-8.5c-3.3 0-6-2.5-6-6.1 0-3.3 2.7-6 6-6h13.4v4.7h-13.4c-.7-0-1.3.6-1.3 1.3z"/>
    <path d="m53.8 1v12.7c0 4.3-3.8 7.8-8.1 7.8h-5.7c-4.3 0-8.1-3.5-8.1-7.8v-12.7h5.1v12.9c0 1.5 1.5 2.8 3.1 2.8h5.5c1.5 0 3.1-1.2 3.1-2.8v-12.9z"/>
    <path d="m79.5 1v12.7c0 4.3-3.8 7.8-8.1 7.8h-5.8c-4.3 0-8.1-3.5-8.1-7.8v-12.7h5.1v13c0 1.5 1.5 2.7 3.1 2.7h5.6c1.5 0 3.1-1.2 3.1-2.7v-13z"/>
    <path d="m162.5 20.9h5.1l-8-19.9h-7.3l-8 19.9h5.1l1.7-4.3h9.6zm-9.7-8.4 2.8-7h.7l2.8 7z"/>
    <path d="m133.3 1-5.3 14.8h-.6l-5.2-14.8h-8.9v19.9h5.1v-15.4h.6l5.6 15.4h6.2l5.6-15.4h.6v15.4h5.1v-19.9z"/>
    <path d="m186.9 20.9h5.1l-8-19.9h-7.3l-8 19.9h5.1l1.7-4.3h9.6zm-9.7-8.4 2.8-7h.7l2.8 7z"/>
    <path d="m43.1 29.5v12.7h-2.1l-6-8.6v8.6h-2.3v-12.7h2.1l6 8.6h.1v-8.6z"/>
    <path d="m49.4 42.3c-.8 0-1.7-.2-2.4-.6s-1.2-1-1.6-1.7c-.7-1.6-.7-3.5 0-5.1.3-.7.9-1.3 1.6-1.7 1.5-.8 3.3-.8 4.8 0 .7.4 1.2 1 1.6 1.7.7 1.6.7 3.5 0 5.1-.4.7-.9 1.3-1.6 1.7s-1.6.7-2.4.6zm0-1.8c.5 0 .9-.1 1.3-.4.3-.3.6-.7.8-1.1.2-.5.3-1 .3-1.6 0-.5-.1-1.1-.3-1.6-.1-.4-.4-.8-.8-1.1-.8-.6-1.8-.6-2.5 0-.4.3-.6.7-.8 1.1-.2.5-.3 1-.3 1.6 0 .5.1 1.1.3 1.6.1.4.4.8.8 1.1.3.3.7.5 1.2.4z"/>
    <path d="m55.5 42.1v-9.5h2.2v1.6h.1c.1-.5.5-1 .9-1.3s.9-.5 1.5-.4h.4.4v2.1c-.1 0-.3-.1-.5-.1s-.4 0-.6 0c-.4 0-.8.1-1.1.3s-.6.4-.8.7-.3.7-.3 1.1v5.6z"/>
    <path d="m65.2 42.3c-.7 0-1.4-.2-2-.6s-1.1-1-1.4-1.7c-.4-.8-.5-1.7-.5-2.7 0-.9.2-1.8.5-2.7.3-.7.8-1.2 1.4-1.6s1.3-.6 2-.6c.5 0 .9.1 1.4.3.3.2.6.4.9.7.2.2.4.5.5.7v-4.7h2.2v12.7h-2.2v-1.5h-.1c-.1.3-.3.5-.5.7-.2.3-.5.5-.9.7-.3.2-.8.3-1.3.3zm.6-1.8c.4 0 .9-.1 1.2-.4s.6-.7.8-1.1c.3-1 .3-2.2 0-3.2-.1-.4-.4-.8-.8-1.1-.7-.5-1.7-.5-2.5 0-.3.3-.6.7-.8 1.1-.3 1-.3 2.1 0 3.2.1.4.4.8.8 1.1s.9.4 1.3.4z"/>
  </g>
</svg>
